<?xml version="1.0" standalone="no"?>
<!DOCTYPE svg PUBLIC "-//W3C//DTD SVG 20010904//EN"
 "http://www.w3.org/TR/2001/REC-SVG-20010904/DTD/svg10.dtd">
<svg version="1.0" xmlns="http://www.w3.org/2000/svg"
 width="871.000000pt" height="871.000000pt" viewBox="0 0 871.000000 871.000000"
 preserveAspectRatio="xMidYMid meet">
<metadata>
Created by potrace 1.11, written by Peter Selinger 2001-2013
</metadata>
<g transform="translate(0.000000,871.000000) scale(0.100000,-0.100000)"
fill="#000000" stroke="none">
<path d="M1853 8090 c-343 -341 -623 -622 -623 -625 0 -3 8 -13 18 -23 16 -16
17 -135 17 -2240 l0 -2222 886 0 886 0 0 1335 c0 734 2 1337 4 1339 2 2 444
-434 982 -968 l977 -973 -537 -535 c-296 -295 -860 -856 -1253 -1247 l-715
-711 612 -611 613 -611 119 118 c275 275 2625 2611 3112 3095 l530 526 -598
596 c-329 327 -800 797 -1048 1042 -247 246 -1057 1051 -1799 1789 -742 737
-1395 1387 -1452 1444 -56 56 -104 102 -106 102 -2 0 -283 -279 -625 -620z"/>
</g>
</svg>
