<?xml version="1.0" encoding="utf-8"?>
<!-- Generator: Adobe Illustrator 22.0.0, SVG Export Plug-In . SVG Version: 6.00 Build 0)  -->
<svg version="1.1" id="Layer_2_1_" xmlns="http://www.w3.org/2000/svg" xmlns:xlink="http://www.w3.org/1999/xlink" x="0px" y="0px"
	 viewBox="0 0 291 291" style="enable-background:new 0 0 291 291;" xml:space="preserve">
<path d="M126,83.5"/>
<g>
	<path d="M145.5,18C75.1,18,18,75.1,18,145.5S75.1,273,145.5,273S273,215.9,273,145.5S215.9,18,145.5,18z M145.5,255.1
		C85,255.1,35.9,206,35.9,145.5S85,35.9,145.5,35.9S255.1,85,255.1,145.5S206,255.1,145.5,255.1z"/>
	<path d="M79.2,174.7L79.2,174.7c-3.6-3.6-3.6-9.3,0-12.9l60.7-60.7c3.6-3.6,9.3-3.6,12.9,0l0,0c3.6,3.6,3.6,9.3,0,12.9l-60.7,60.7
		C88.5,178.2,82.7,178.2,79.2,174.7z"/>
	<path d="M213.3,174.7L213.3,174.7c3.6-3.6,3.6-9.3,0-12.9L152.6,101c-3.6-3.6-9.3-3.6-12.9,0l0,0c-3.6,3.6-3.6,9.3,0,12.9
		l60.7,60.7C204,178.2,209.8,178.2,213.3,174.7z"/>
</g>
</svg>
