<?xml version="1.0" encoding="utf-8"?>
<!-- Generator: Adobe Illustrator 22.0.0, SVG Export Plug-In . SVG Version: 6.00 Build 0)  -->
<svg version="1.1" id="Layer_1" xmlns="http://www.w3.org/2000/svg" xmlns:xlink="http://www.w3.org/1999/xlink" x="0px" y="0px"
	 viewBox="0 0 20.8 19.9" style="enable-background:new 0 0 20.8 19.9;" xml:space="preserve">

<title>checked</title>
<path  d="M5.2,18.9h10c2.2,0,4-1.8,4-4V10c0-0.6-0.4-1-1-1s-1,0.4-1,1v4.9c0,1.1-0.9,2-2,2h-10c-1.1,0-2-0.9-2-2v-10
	c0-1.1,0.9-2,2-2h5c0.6,0,1-0.4,1-1s-0.4-1-1-1h-5c-2.2,0-4,1.8-4,4v10C1.2,17.1,3,18.9,5.2,18.9z"/>
<path d="M18.5,2.2l-8.3,8.3L6.9,7.2C6.5,6.8,5.9,6.9,5.5,7.3c-0.3,0.4-0.3,0.9,0,1.3l4,4c0.4,0.4,1,0.4,1.4,0l9-9
	c0.4-0.4,0.3-1.1-0.1-1.4C19.4,1.8,18.9,1.8,18.5,2.2L18.5,2.2z"/>
</svg>
