<?xml version="1.0" encoding="utf-8"?>
<svg version="1.1" xmlns="http://www.w3.org/2000/svg" xmlns:xlink="http://www.w3.org/1999/xlink" x="0px" y="0px"
	 viewBox="0 0 28.3 28.3" style="enable-background:new 0 0 28.3 28.3;" xml:space="preserve">
<g id="Layer_2">
	<g>
		<circle cx="10.1" cy="24.5" r="2.5"/>
		<circle cx="20.4" cy="24.5" r="2.5"/>
		<path d="M26.6,5.8H10.8v2.7h14.1l-1.6,6.8c-0.2,0.9-1,1.6-1.9,1.6h-11c-0.9,0-1.8-0.6-2-1.6L5.6,2.9c-0.1-0.6-0.7-1-1.3-1H0v2.7
			h3.3l2.6,11.4c0.5,2.1,2.4,3.7,4.6,3.6h11c2.2,0,4.1-1.5,4.5-3.6l2-8.4c0.2-0.7-0.3-1.4-1-1.6C26.8,5.8,26.7,5.8,26.6,5.8z"/>
	</g>
</g>
</svg>
