<?xml version="1.0" encoding="utf-8"?>
<svg version="1.1" xmlns="http://www.w3.org/2000/svg" xmlns:xlink="http://www.w3.org/1999/xlink" x="0px" y="0px"
	 viewBox="0 0 28.3 28.3" style="enable-background:new 0 0 28.3 28.3;" xml:space="preserve">
<g id="Layer_2">
	<g>
		<path d="M13.8,26.6c-0.3,0-0.6-0.1-0.8-0.3c-1-1-9.4-10.1-9.4-15.4c0-5.6,4.6-10.2,10.2-10.2S24,5.3,24,10.9
			c0,5.3-8.4,14.3-9.4,15.4C14.4,26.5,14.1,26.6,13.8,26.6z M13.8,3c-4.4,0-7.9,3.6-7.9,7.9c0,3.4,5.2,9.8,7.9,12.9
			c2.8-3.1,7.9-9.6,7.9-12.9C21.7,6.5,18.2,3,13.8,3z"/>
		<path d="M13.8,15.5c-2.7,0-4.8-2.2-4.8-4.8s2.2-4.8,4.8-4.8s4.8,2.2,4.8,4.8S16.5,15.5,13.8,15.5z M13.8,8c-1.4,0-2.6,1.2-2.6,2.6
			s1.2,2.6,2.6,2.6s2.6-1.2,2.6-2.6S15.2,8,13.8,8z"/>
	</g>
</g>
</svg>