<?xml version="1.0" encoding="utf-8"?>
<!-- Generator: Adobe Illustrator 22.0.0, SVG Export Plug-In . SVG Version: 6.00 Build 0)  -->
<svg version="1.1" id="Layer_2_1_" xmlns="http://www.w3.org/2000/svg" xmlns:xlink="http://www.w3.org/1999/xlink" x="0px" y="0px"
	 viewBox="0 0 291 291" style="enable-background:new 0 0 291 291;" xml:space="preserve">
<g>
	<g>
		<path d="M211.4,87.9l-6.5,155.3c-0.1,3-2.8,5.6-5.9,5.6H86.1c-3.1,0-5.8-2.6-5.9-5.6L73.7,87.9c-0.2-4.9-4.3-8.6-9.2-8.4
			c-4.9,0.2-8.6,4.3-8.4,9.2L62.6,244c0.5,12.5,11,22.5,23.5,22.5H199c12.5,0,23-10,23.5-22.5L229,88.7c0.2-4.9-3.6-9-8.4-9.2
			C215.7,79.3,211.6,83.1,211.4,87.9z"/>
		<path d="M135.5,102.4v120c0,3.9,3.2,7.1,7.1,7.1c3.9,0,7.1-3.2,7.1-7.1v-120c0-3.9-3.2-7.1-7.1-7.1
			C138.6,95.4,135.5,98.5,135.5,102.4z"/>
		<path d="M96.7,102.6l3.5,120c0.1,3.9,3.4,7,7.3,6.8c3.9-0.1,7-3.4,6.8-7.3l-3.5-120c-0.1-3.9-3.4-7-7.3-6.8
			C99.6,95.5,96.6,98.7,96.7,102.6z"/>
		<path d="M174.3,102.2l-3.5,120c-0.1,3.9,3,7.1,6.8,7.3c3.9,0.1,7.1-3,7.3-6.8l3.5-120c0.1-3.9-3-7.1-6.8-7.3
			C177.7,95.3,174.4,98.3,174.3,102.2z"/>
		<path d="M54.3,67.1h176.4c4.9,0,8.8-3.9,8.8-8.8s-3.9-8.8-8.8-8.8H54.3c-4.9,0-8.8,3.9-8.8,8.8S49.4,67.1,54.3,67.1z"/>
		<path d="M115.7,55.4l3.7-12.9c0.8-2.8,4.4-5.4,7.2-5.4h31.8c2.9,0,6.4,2.7,7.2,5.4l3.7,12.9l17-4.8l-3.7-12.9
			c-3-10.3-13.4-18.2-24.2-18.2h-31.8c-10.7,0-21.2,7.9-24.2,18.2l-3.7,12.9L115.7,55.4z"/>
	</g>
</g>
</svg>
