<?xml version="1.0" encoding="utf-8"?>
<!-- Generator: Adobe Illustrator 22.0.0, SVG Export Plug-In . SVG Version: 6.00 Build 0)  -->
<svg version="1.1" id="Layer_1" xmlns="http://www.w3.org/2000/svg" xmlns:xlink="http://www.w3.org/1999/xlink" x="0px" y="0px"
	 viewBox="0 0 470 470" style="enable-background:new 0 0 470 470;" xml:space="preserve">
<style type="text/css">
	.st0{display:none;}
	.st1{display:inline;}
</style>
<g id="Layer_1_1_" class="st0">
	<g class="st1">
		<path d="M127.4,458c-4.5,0-8.2-3.7-8.2-8.2v-37.7c0-4.3,3.3-7.8,7.5-8.1V263.6c-4.2-0.3-7.5-3.8-7.5-8.1v-37.7
			c0-4.5,3.7-8.2,8.2-8.2h252.9c4.5,0,8.2,3.7,8.2,8.2v37.7c0,4.3-3.3,7.8-7.5,8.1V404c4.2,0.3,7.5,3.8,7.5,8.1v37.7
			c0,4.5-3.7,8.2-8.2,8.2L127.4,458L127.4,458z M372.1,441.7v-21.4h-22c-4.5,0-8.2-3.7-8.2-8.2s3.7-8.2,8.2-8.2h10.8l-47.6-125.5
			l-47.6,125.5h61.8c4.5,0,8.2,3.7,8.2,8.2s-3.7,8.2-8.2,8.2H135.6v21.4H372.1z M242,403.9l-47.6-125.5l-47.6,125.5H242z
			 M253.9,389.1l47.6-125.5h-95.3L253.9,389.1z M143.1,367.6l39.5-104h-2.3c-4.5,0-8.2-3.7-8.2-8.2c0-4.5,3.7-8.2,8.2-8.2h191.9
			v-21.4H135.6v21.4h22c4.5,0,8.2,3.7,8.2,8.2c0,4.5-3.7,8.2-8.2,8.2h-14.5V367.6z M364.6,367.6v-104h-39.5L364.6,367.6z"/>
		<path d="M118,185.9c-1.8,0-3.5-1.2-4-2.9c-0.6-1.7,0.1-3.6,1.6-4.7l64-48.3c0.8-0.6,1.8-0.9,2.8-0.9c1.2,0,2.4,0.5,3.2,1.4
			s1.2,2.1,1.1,3.3c-0.1,1.2-0.7,2.3-1.7,3l-0.4,0.3c-14.6,11-62.2,47-63.2,47.7C120.1,185.5,119,185.9,118,185.9z"/>
		<path d="M157.9,188.3c-1.8,0-3.4-1.2-4-2.9s0-3.6,1.6-4.7l37.1-28c0.8-0.6,1.7-0.9,2.7-0.9c1.2,0,2.4,0.5,3.1,1.4
			c0.8,0.9,1.2,2.1,1.1,3.3s-0.7,2.3-1.7,3L166.7,183c-3.3,2.5-4.9,3.7-5.9,4.3v0.1C159.9,187.9,158.9,188.3,157.9,188.3z"/>
		<path d="M465.2,30.1c-1.5-2-3.8-3.1-6.3-3.1c-1.7,0-3.4,0.6-4.8,1.6L305,141.2c-4-2.6-8.7-4.1-13.5-4.1c-5.3,0-10.3,1.7-14.5,4.9
			c-10.6,8-12.8,23.2-4.7,33.9c4.6,6.1,11.7,9.6,19.3,9.6l0,0c5.3,0,10.3-1.7,14.5-4.9c8.3-6.3,11.6-17,8.4-26.8L463.6,41.2
			c1.7-1.3,2.8-3.1,3.1-5.2C467,33.9,466.5,31.8,465.2,30.1z M291.6,177.3c-8.8,0-16-7.1-16-16c0-8.8,7.1-16,16-16s16,7.1,16,16
			C307.5,170.1,300.4,177.3,291.6,177.3z"/>
	</g>
</g>
<g id="Layer_2_1_" class="st0">
	<g class="st1">
		<path d="M100.8,294.3c-30.7-22.6-49-58.8-49-96.8c0-66.3,54-120.3,120.3-120.3c32.5,0,62.9,12.8,85.8,36.1l2.1,2.1l-12.3,9.3
			l-1.6-1.6c-19.8-19.7-46.1-30.6-74-30.6c-57.8,0-104.9,47.1-104.9,104.9c0,30.7,13.4,59.8,36.9,79.8l0.9,0.8v19.3L100.8,294.3z"/>
		<path d="M81.1,330.7c-10.8,0-21.4-4.3-28.9-11.9c-12.1-12.1-15.3-31-8-46.3c-6.6-11.4-11.7-23.5-15-36.1
			C13.2,230.6,2.1,215,2.1,198c0-17.1,11.1-32.7,27.1-38.4c3.4-12.6,8.4-24.8,15-36.1c-7.3-15.4-4.1-34.3,8-46.3
			c7.6-7.6,18.1-11.9,28.9-11.9c6,0,12,1.3,17.4,3.9c11.4-6.6,23.5-11.7,36.1-15c5.7-16,21.3-27.1,38.4-27.1s32.7,11.1,38.4,27.1
			c12.6,3.4,24.8,8.4,36.1,15c5.4-2.6,11.4-3.9,17.4-3.9c10.8,0,21.4,4.3,28.9,11.9c1.7,1.7,3.2,3.6,4.6,5.6l1.4,2.1l-12.7,9.7
			l-1.5-2.3c-0.9-1.3-1.9-2.6-3.1-3.7c-4.5-4.5-10.8-7.2-17.4-7.2c5.5,4.4,10.8,9.2,15.7,14.4l2,2.1l-12.8,9.7l-1.6-1.7
			c-25.1-26.4-59-40.9-95.3-40.9c-73.3,0-133,59.6-133,133c0,44.6,22.3,86,59.6,110.8l1.2,0.8v16.1l-1.4,0.7
			C93.8,329.2,87.5,330.7,81.1,330.7z M56.3,290.2c0.1,6.4,2.6,12.7,7.2,17.3c4.5,4.5,10.8,7.2,17.3,7.2
			C71.7,307.6,63.5,299.3,56.3,290.2z M25.2,180.7c-4.5,4.6-7.1,10.8-7.1,17.3s2.6,12.7,7.1,17.3c-0.7-5.7-1-11.5-1-17.3
			S24.5,186.4,25.2,180.7z M80.8,81.1c-6.5,0.1-12.8,2.7-17.3,7.2c-4.6,4.6-7.2,10.9-7.2,17.3C63.5,96.6,71.7,88.4,80.8,81.1z
			 M173.1,43c-6.5,0-12.7,2.6-17.3,7.1c5.7-0.7,11.5-1,17.3-1s11.5,0.3,17.3,1C185.8,45.6,179.5,43,173.1,43z"/>
	</g>
</g>
<g id="Layer_3" class="st0">
	<path class="st1" d="M228.5,149.7c-27.4,0-49.7-22.3-49.7-49.7c0-1.9,0.1-3.9,0.4-5.9c-7.3-22.6-7.8-31.8-7.8-33.7
		c0-0.4-0.1-1.1-0.2-2.4l-0.1-1.1c-0.1-1.7-0.8-17.1,17-25.7c9.2-4.4,23.7-6.9,39.8-6.9c14.2,0,27.9,2,36.8,5.2
		c17.6,6.5,23.1,15.8,20.6,34.3c-1.2,8.6-5.5,23.9-7.4,30.5c0.2,1.9,0.3,3.8,0.3,5.7C278.2,127.4,255.9,149.7,228.5,149.7z
		 M196.5,96.3c-0.1,1.2-0.2,2.5-0.2,3.7c0,17.8,14.5,32.2,32.2,32.2s32.2-14.5,32.2-32.2c0-2.5-0.3-5-0.9-7.4c-0.2,0-0.4,0-0.6-0.1
		c-7.2-0.5-14.1-2.4-20.6-5.5c-3.3,2.3-6.8,4.2-10.6,5.8c-6.5,3-13.4,4.5-20.7,4.5c-1.8,0-3.6-0.1-5.4-0.3
		C200.2,96.9,198.4,96.6,196.5,96.3z M203.5,79.6c1,0.1,1.9,0.1,2.7,0.1c5.3,0,10.4-1,15.2-3c3.2-1.5,6.1-3.6,8.7-6.1l7.5-7.4
		l8.5,6.1c4.4,3.1,9.5,5.1,14.8,5.8c1,0.1,1.8,0.1,2.7,0.1c0.5,0,1,0,1.5,0c1.5-6,2.6-10.7,3-13.7c0.7-5.1,0.6-8.5-0.4-10.2
		c-1.2-2.2-5.6-4.1-9-5.4c-6.9-2.6-18.6-4.2-30.7-4.2c-13.6,0-25.4,1.9-32.3,5.2c-7.3,3.5-7.1,8.4-7.1,8.6l0.2,2.4l0.3,0.9l-0.1,1.8
		c0.1,1.1,0.5,5.6,3.1,15.5l2.4,1.1C197.3,78.4,200.4,79.2,203.5,79.6z"/>
	<path class="st1" d="M226.6,270.4c-19.8,0-37.6-7.2-50.1-20.4l-1.7-1.8l0.4-2.5c4.8-27.3-8.1-39-10.1-40.7l-0.8-0.5l-97.9-47.6
		c-7.7-3.8-13.4-10.3-16.2-18.3c-2.8-8.1-2.2-16.7,1.5-24.4c5.4-11,16.4-17.9,28.7-17.9c4.9,0,9.6,1.1,14,3.3L211,156.8
		c7.3,2.7,13.6,4.1,19.2,4.1c6.6,0,12.7-1.8,19.8-5.9l109.8-63.4c4.8-2.8,10.4-4.3,15.9-4.3c11.4,0,22,6.1,27.7,16
		c4.3,7.4,5.4,16,3.2,24.2c-2.2,8.2-7.5,15.1-14.9,19.4l-100.5,58c-0.9,0.7-2,1.9-2.2,2.3c-3.1,6.1-8.3,19.2-7.3,38.2l0.6,10.5
		l-5.4-4C265.6,263.2,246.1,270.4,226.6,270.4z M193.7,241.7c8.7,7,20.4,10.9,32.9,10.9c14.2,0,29.3-5.2,37.2-12.8
		c0.3-17.9,5.5-32.3,8.7-39.3l0.1-0.2l0.1-0.2c2.5-4.5,4.6-7.7,10.1-10.9l100-57.7c3.3-1.9,5.6-4.9,6.6-8.6c1-3.6,0.5-7.4-1.4-10.7
		c-2.5-4.3-7.2-7-12.2-7c-2.4,0-4.9,0.7-7,1.9L259,170.5c-9.8,5.7-18.9,8.3-28.7,8.3c-7.9,0-16.3-1.7-25.7-5.3l-0.6-0.2L86.6,115.6
		c-2-1-4-1.4-6.2-1.4c-5.4,0-10.3,3-12.7,7.9c-1.7,3.4-1.9,7.2-0.7,10.8c1.2,3.6,3.7,6.4,7.1,8.1l97.1,47.2l4,2.3l0.2,0.2
		C176.4,191.2,196.9,206.9,193.7,241.7z"/>
	<path class="st1" d="M163.1,405.9c-1.2,0-2.2-1-2.2-2.3v-52.9c0-0.3,1.5-33.5,14.2-52.6l0.1-0.1l11.1-19.6c0.4-0.6,1.1-0.9,1.8-0.9
		c0.3,0,0.7,0.1,1,0.2l0.2,0.1c0.6,0.3,1,0.8,1.1,1.4c0.2,0.6,0.1,1.3-0.3,1.8l-10.3,16.4c-0.5,0.8-12.5,20.1-13.9,50.5
		c-1.3,27.2-0.9,46.5-0.6,55.6c0,0.6-0.2,1.2-0.6,1.6C164.3,405.7,163.7,405.9,163.1,405.9z"/>
	<path class="st1" d="M293.3,407.3c1.2,0,2.2-1,2.2-2.3v-52.9c0-0.3-1.5-33.5-14.3-52.6l-0.1-0.1l-11.2-19.6
		c-0.4-0.6-1.1-0.9-1.8-0.9c-0.3,0-0.7,0.1-1,0.2l-0.2,0.1c-0.6,0.3-1,0.8-1.1,1.4c-0.2,0.6-0.1,1.3,0.3,1.8l10.3,16.4
		c0.5,0.8,12.6,20.1,14.1,50.5c1.3,27.2,0.9,46.5,0.6,55.6c0,0.6,0.2,1.2,0.6,1.6C292.2,407,292.7,407.3,293.3,407.3z"/>
	<path class="st1" d="M109.9,430.8c-20.1,0-36.5-16.1-36.5-36V372c0-12.5,13.4-41.4,31.8-68.6c13.3-19.5,40.3-54.8,72.6-71.1l3.9-2
		l2.5,3.5c8.5,12.1,25.2,19.6,43.5,19.6c18.4,0,35.1-7.6,43.6-19.8l2.5-3.6l3.9,2c31.8,16.2,58.9,51.4,72.2,71
		c18.9,27.8,32,56.1,32,68.8v22.8c0,19.9-16.1,36-36,36h-236V430.8z M177.4,253.3c-26.5,16.9-48.5,46.8-59.4,63.3
		c-16.5,24.9-26.7,48.2-26.7,55.5v22.8c0,9.9,8.3,18,18.5,18h235.9c9.9,0,18-8.1,18-18v-22.8c0-5.4-8.7-29-28.8-58.7
		c-17.8-26.3-38.5-48.1-57-60.2c-12.6,11.5-31.3,18.4-50.3,18.4C208.6,271.5,190,264.7,177.4,253.3z"/>
	<path class="st1" d="M236.3,81.5L236.3,81.5c-1.3,3.4-0.8,1.8-1.4,5.5l5.6,5.2"/>
</g>
<g id="Layer_4" class="st0">
	<g class="st1">
		<path d="M354.9,12.2l-19,6.3c-2.6,0.9-4.3,3.3-4.3,6v34.2l-9.2,4.6l5.7,11.4l12.7-6.4c2.2-1.1,3.5-3.3,3.5-5.7V29.2l14.7-4.9
			L354.9,12.2z"/>
		<path d="M75,238.9c-0.5,6.3-5.8,11.2-12.2,11c-13.4-0.7-24.8,9.6-25.5,23l12.7,0.6c0.3-6.4,5.8-11.3,12.2-11s12.8-1.9,17.5-6.2
			c4.8-4.3,7.7-10.4,8-16.8c0.3-6.4,5.8-11.3,12.2-11l0.6-12.7C87.1,215.1,75.7,225.5,75,238.9z"/>
		<polygon points="408.8,228.5 396.1,228.5 396.1,215.8 383.4,215.8 383.4,228.5 370.7,228.5 370.7,241.2 383.4,241.2 383.4,253.9 
			396.1,253.9 396.1,241.2 408.8,241.2 		"/>
		<path d="M108.6,25.2c-12.3,0-22.2,9.9-22.2,22.2s10,22.2,22.2,22.2c12.3,0,22.2-10,22.2-22.2C130.9,35.2,120.9,25.2,108.6,25.2z
			 M108.6,57c-5.3,0-9.5-4.3-9.5-9.5s4.3-9.5,9.5-9.5c5.3,0,9.5,4.3,9.5,9.5S113.9,57,108.6,57z"/>
	</g>
</g>
<g>
	<g>
		<path d="M233.2,10C108.6,10,7,111.2,7,235.8s101.2,225.8,226.2,225.8c124.6,0,225.8-101.2,225.8-225.8S357.8,10,233.2,10z
			 M233.2,430.1c-107.1,0-194.3-87.2-194.3-194.3S126.1,41.5,233.2,41.5s194.3,87.2,194.3,194.3S340.3,430.1,233.2,430.1z"/>
		<path d="M337.1,217.9h-88v-88.4c0-9-7-16-16-16c-9,0-16,7-16,16v88h-88c-9,0-16,7-16,16c0,9,7,16,16,16h88v88c0,9,7,16,16,16
			c9,0,16-7,16-16v-88h88c9,0,16-7,16-16S346.1,217.9,337.1,217.9z"/>
	</g>
</g>
</svg>
