<?xml version="1.0" encoding="utf-8"?>
<svg version="1.1" id="Layer_3" xmlns="http://www.w3.org/2000/svg" xmlns:xlink="http://www.w3.org/1999/xlink" x="0px" y="0px"
	 viewBox="0 0 201 184" style="enable-background:new 0 0 201 184;" xml:space="preserve">
<style type="text/css">
	.st0{fill:#222;}
	.st1{fill:#32bbdd;}
</style>
<g>
	<path class="st0" d="M76.3,61.6l-4.1-4.1c-0.5-0.5-1-0.5-1.5,0L60,68.4l-4.1-4.1l8.1-8.1c0.2-0.2,0.3-0.5,0.3-0.7
		c0-0.3-0.1-0.5-0.3-0.6l-3.5-3.5c-0.2-0.2-0.5-0.3-0.7-0.3c-0.2,0-0.4,0.2-0.7,0.4l-8.1,8.1l-4-4L57.5,45c0.2-0.2,0.4-0.5,0.3-0.8
		c0-0.3-0.1-0.5-0.3-0.7l-4-4c-0.2-0.2-0.5-0.4-0.8-0.4c-0.3,0-0.5,0.1-0.8,0.3l-16,16c-0.2,0.2-0.3,0.5-0.3,0.7
		c0,0.3,0.1,0.5,0.4,0.7l22.6,22.5c0.2,0.2,0.5,0.3,0.7,0.3c0.2,0,0.5-0.1,0.7-0.3l16.3-16.3c0.4-0.4,0.5-0.8,0.2-1.1
		C76.5,61.8,76.4,61.7,76.3,61.6z"/>
	<path class="st0" d="M91.7,28.4L78.1,14.8c-0.2-0.2-0.4-0.3-0.7-0.3c-0.3,0-0.6,0.1-0.8,0.4l-4.7,4.7c-0.2,0.2-0.3,0.5-0.3,0.8
		c0,0.3,0.1,0.5,0.3,0.7l13.7,13.7c0.7,0.7,1.2,1.4,1.6,2.2c0.3,0.8,0.5,1.5,0.5,2.2c0,0.7-0.1,1.4-0.4,2.1
		c-0.3,0.7-0.7,1.3-1.2,1.8c-0.5,0.5-1.1,0.9-1.7,1.3c-0.6,0.3-1.3,0.5-2,0.5c-0.7,0-1.5-0.1-2.2-0.5s-1.6-0.9-2.4-1.7L63.9,28.9
		c-0.2-0.2-0.5-0.3-0.8-0.2c-0.3,0-0.5,0.1-0.7,0.3l-4.8,4.8c-0.2,0.2-0.3,0.4-0.2,0.7s0.1,0.5,0.3,0.7l13.6,13.6
		c1.9,1.8,3.7,3.1,5.5,3.9c1.8,0.7,3.6,1,5.3,0.9c1.7-0.1,3.4-0.7,5-1.6c1.6-0.9,3.1-2,4.4-3.4c1.4-1.4,2.5-2.8,3.4-4.4
		c0.9-1.6,1.4-3.2,1.6-4.9s-0.1-3.5-0.9-5.3C94.9,32.1,93.6,30.2,91.7,28.4z"/>
	<rect x="126" y="36.3" class="st0" width="20" height="51"/>
</g>
<g>
	<path class="st1" d="M69.9,93.2l3.7,3.6c0.1,0.1,0.3,0.2,0.5,0.2c0.2,0,0.4,0,0.7-0.1s0.5-0.1,0.7-0.2c0.2-0.1,0.4-0.2,0.6-0.3
		l27.2-12.5l0,0c0,0,0.1-0.1,0.2-0.1c0.1-0.1,0.2-0.3,0.2-0.5s-0.1-0.4-0.4-0.6L98.6,78c-0.4-0.4-0.9-0.5-1.4-0.2
		c-1.5,0.7-3,1.5-4.5,2.3c-1.5,0.8-2.9,1.5-4.4,2.3c-1.5,0.8-2.9,1.6-4.4,2.3c-1.5,0.8-3,1.5-4.5,2.3l8.7-18c0.2-0.5,0.2-1-0.2-1.3
		l-4.8-4.7c-0.4-0.4-0.7-0.4-1-0.1c0,0-0.1,0.1-0.1,0.1c0,0.1-0.1,0.1-0.1,0.2L70.1,90.6c-0.1,0.3-0.2,0.6-0.3,0.8
		c-0.1,0.3-0.2,0.5-0.2,0.8C69.5,92.5,69.6,92.9,69.9,93.2z"/>
	<path class="st1" d="M118.5,113.1c0.7-1.2,1.2-2.5,1.5-3.8c0.3-1.3,0.5-2.7,0.5-4.1c0-1.4-0.2-2.7-0.6-4c-0.4-1.3-0.9-2.6-1.6-3.8
		c-0.7-1.2-1.6-2.3-2.6-3.4c-1.1-1-2.2-1.9-3.4-2.5s-2.5-1.2-3.8-1.5c-1.3-0.3-2.7-0.5-4-0.5c-1.4,0-2.7,0.2-4,0.6
		c-1.3,0.4-2.6,0.9-3.8,1.6c-1.2,0.7-2.3,1.6-3.4,2.6c-1,1.1-1.9,2.2-2.6,3.4c-0.7,1.2-1.2,2.5-1.5,3.8c-0.3,1.3-0.5,2.7-0.5,4
		c0,1.4,0.2,2.7,0.6,4c0.4,1.3,0.9,2.6,1.6,3.8s1.6,2.3,2.6,3.4c1,1,2.2,1.9,3.4,2.5c1.2,0.7,2.5,1.2,3.8,1.5c1.3,0.3,2.7,0.5,4,0.5
		c1.4,0,2.7-0.2,4-0.6c1.3-0.4,2.6-0.9,3.8-1.6c1.2-0.7,2.3-1.6,3.4-2.6C117,115.5,117.9,114.4,118.5,113.1z M112.1,108.2
		c-0.4,1-1,1.9-1.8,2.7c-0.8,0.8-1.7,1.5-2.7,1.9c-1,0.4-2,0.7-3,0.7c-1,0-2-0.1-3-0.5c-1-0.4-1.9-1-2.7-1.8s-1.4-1.7-1.8-2.7
		c-0.4-1-0.6-2-0.6-3s0.2-2,0.7-3c0.4-1,1-1.9,1.8-2.7c0.8-0.8,1.7-1.4,2.7-1.9c1-0.5,2-0.7,3-0.7c1,0,2,0.1,3,0.5
		c1,0.4,1.9,0.9,2.7,1.7s1.4,1.7,1.8,2.7c0.4,1,0.6,2,0.6,3C112.7,106.2,112.5,107.2,112.1,108.2z"/>
	<path class="st1" d="M144.1,122.4c-0.2-0.2-0.4-0.3-0.7-0.3c-0.3,0-0.5,0.1-0.6,0.3L130.5,135c-0.6,0.7-1.3,1.1-2,1.5
		c-0.7,0.3-1.4,0.5-2,0.5c-0.7,0-1.3-0.1-1.9-0.4c-0.6-0.3-1.2-0.6-1.7-1.1c-0.5-0.5-0.9-1-1.2-1.6c-0.3-0.6-0.5-1.2-0.5-1.8
		c0-0.6,0.1-1.3,0.4-2c0.3-0.7,0.8-1.4,1.5-2.2l12.3-12.7c0.2-0.2,0.3-0.4,0.2-0.7c0-0.3-0.1-0.5-0.3-0.6l-4.5-4.3
		c-0.2-0.2-0.4-0.2-0.6-0.2c-0.2,0-0.5,0.1-0.6,0.3l-12.3,12.6c-1.7,1.7-2.8,3.4-3.5,5.1c-0.6,1.7-0.9,3.3-0.7,4.9
		c0.2,1.6,0.6,3.1,1.5,4.5c0.8,1.4,1.9,2.8,3.1,4c1.3,1.2,2.6,2.2,4,3c1.4,0.8,2.9,1.3,4.5,1.4s3.2-0.2,4.8-0.8
		c1.7-0.7,3.3-1.9,5-3.6l12.3-12.6c0.2-0.2,0.2-0.4,0.2-0.6s-0.1-0.5-0.3-0.7L144.1,122.4z"/>
	<path class="st1" d="M28.7,91c0.3,0,0.5-0.2,0.7-0.3l3.9-3.9c0.2-0.2,0.4-0.5,0.3-0.8c0-0.3-0.1-0.5-0.3-0.7L26,78.2l5-5l9.8,9.8
		c0.2,0.2,0.5,0.4,0.8,0.3c0.3,0,0.5-0.1,0.7-0.3l4-4c0.2-0.2,0.4-0.5,0.4-0.7c0-0.3-0.1-0.5-0.3-0.8L30.9,62
		c-0.2-0.2-0.4-0.2-0.7-0.2c-0.3,0-0.5,0.1-0.7,0.3L7,84.6c-0.4,0.4-0.4,0.8-0.1,1.3l4.9,4.9c0.5,0.5,1,0.5,1.4,0.1l7.4-7.4l7.3,7.3
		C28.1,91,28.4,91.1,28.7,91z"/>
	<path class="st1" d="M62,89.1c0.2,0.2,0.4,0.3,0.7,0.3c0.2,0,0.5,0,0.9-0.1l5.1-1.9c0.2-0.1,0.3-0.1,0.5-0.2
		c0.1-0.1,0.3-0.2,0.3-0.3c0.1-0.1,0.1-0.3,0.1-0.4s-0.1-0.3-0.3-0.5l-4.2-4.2c-0.2-0.2-0.4-0.3-0.7-0.4c-0.3-0.1-0.6,0-0.9,0.2
		l-4.2,2.5c-0.1,0.1-0.3,0.2-0.4,0.3c-0.2,0.1-0.3,0.2-0.4,0.3s-0.2,0.3-0.2,0.4c0,0.1,0,0.3,0.2,0.5L62,89.1z"/>
	<path class="st1" d="M60.7,92.8c0-0.1,0-0.3,0-0.6c0-0.2-0.1-0.5-0.3-0.6l-4.1-4.1c-0.1-0.1-0.2-0.2-0.3-0.2
		c-0.1-0.1-0.3-0.1-0.4-0.1c-0.2,0-0.3,0-0.4,0s-0.2,0.1-0.3,0.1l-31.5,13.9c-0.3,0.1-0.4,0.3-0.4,0.6c0,0.2,0.1,0.5,0.3,0.7
		l4.8,4.8c0.4,0.4,0.9,0.5,1.4,0.2c0.8-0.3,1.5-0.7,2.3-1c0.8-0.3,1.5-0.7,2.3-1l8.6,8.6c-0.3,0.8-0.7,1.5-1,2.2
		c-0.3,0.7-0.7,1.5-1,2.3c-0.1,0.3-0.2,0.5-0.1,0.8s0.2,0.5,0.4,0.7l4.6,4.6c0.3,0.3,0.6,0.4,0.8,0.4c0.3,0,0.4-0.2,0.6-0.5
		l13.4-30.3L60.7,92.8z M45.9,106.9l-5-5c0.8-0.3,1.6-0.7,2.4-1.1c0.8-0.4,1.7-0.8,2.5-1.3c0.9-0.4,1.7-0.9,2.5-1.3
		c0.8-0.4,1.6-0.8,2.4-1.2L45.9,106.9z"/>
	<path class="st1" d="M69.1,134.4c-0.9-0.1-1.8-0.4-2.7-0.8c-0.9-0.4-1.7-1-2.4-1.7c-0.9-0.9-1.5-1.9-1.9-2.9
		c-0.4-1.1-0.6-2.2-0.6-3.3c0-1.1,0.3-2.2,0.8-3.3c0.5-1.1,1.1-2,2-2.9c0.9-0.9,1.9-1.6,2.9-2c1.1-0.5,2.2-0.7,3.3-0.8
		c1.1,0,2.2,0.1,3.3,0.6c1.1,0.4,2.1,1.1,2.9,1.9c0.7,0.7,1.3,1.5,1.7,2.3c0.4,0.9,0.7,1.7,0.8,2.7c0.1,0.3,0.2,0.5,0.4,0.6
		c0.2,0.1,0.4,0.1,0.7,0.1l6.6-1.1c0.4-0.1,0.6-0.3,0.7-0.6c0.1-0.3,0.1-0.5,0-0.8c-0.3-1.7-0.9-3.3-1.7-4.8
		c-0.8-1.5-1.8-2.9-3.1-4.2c-1.1-1.1-2.4-2.1-3.7-2.8s-2.7-1.3-4.2-1.7c-1.4-0.4-2.9-0.6-4.4-0.6c-1.5,0-3,0.2-4.4,0.6
		c-1.5,0.4-2.9,1-4.2,1.7c-1.3,0.8-2.6,1.7-3.7,2.8c-1.1,1.1-2.1,2.4-2.9,3.7c-0.8,1.3-1.3,2.7-1.7,4.2s-0.6,2.9-0.6,4.4
		c0,1.5,0.2,3,0.6,4.4c0.4,1.5,0.9,2.8,1.7,4.2s1.7,2.6,2.8,3.7c1.3,1.3,2.7,2.3,4.2,3.1c1.5,0.8,3.2,1.4,4.8,1.7
		c0.3,0.1,0.6,0.1,0.8,0c0.2-0.1,0.4-0.3,0.5-0.6l1.2-6.7c0-0.3,0-0.5-0.1-0.7C69.6,134.6,69.4,134.5,69.1,134.4z"/>
	<path class="st1" d="M99.7,131.3c-0.1-0.3-0.2-0.5-0.3-0.7l-4.7-4.7c-0.2-0.2-0.5-0.3-0.7-0.3c-0.3,0-0.5,0.1-0.7,0.3l-22.6,22.5
		c-0.5,0.5-0.5,0.9,0,1.4l4.7,4.8c0.5,0.5,1,0.6,1.5,0.1l22.6-22.5C99.7,131.9,99.8,131.6,99.7,131.3z"/>
	<path class="st1" d="M105.5,136.7c-0.2-0.2-0.5-0.3-0.7-0.3c-0.3,0-0.5,0.1-0.7,0.3l-22.6,22.5c-0.5,0.5-0.5,0.9,0,1.4l14.4,14.4
		c0.2,0.2,0.5,0.3,0.8,0.3c0.3,0,0.5-0.1,0.7-0.3l4.2-4.2c0.2-0.2,0.3-0.5,0.3-0.7c0-0.3-0.1-0.5-0.3-0.7l-8.9-8.9l17.6-17.5
		c0.2-0.2,0.3-0.5,0.3-0.8s-0.1-0.5-0.3-0.7L105.5,136.7z"/>
	<polygon class="st1" points="139.7,22.2 125.6,36.3 168.3,79 139.9,107.4 153.7,121.2 196.2,78.7 	"/>
</g>
</svg>
